# xmcd CD database file
#
# Track frame offsets:
#	150
#	23262
#	43887
#	70965
#	95525
#	116262
#	137287
#	158942
#	176612
#	203362
#
# Disc length: 3089 seconds
#
# Revision: 0
# Processed by: cddbd v1.5PL3 Copyright (c) Steve Scherf et al.
# Submitted via: CDex 1.50
#
DISCID=750c0f0a
DTITLE=大江 千里 - home at last 〜Senri sings senri〜
DYEAR=2003
DGENRE=JPop
TTITLE0=あしたのｼﾞｮｰﾈﾂ
TTITLE1=ｿﾅﾁﾈ
TTITLE2=10years
TTITLE3=ﾒﾘｰｺﾞｰﾗﾝﾄﾞ
TTITLE4=Pearl-White Eve
TTITLE5=ｸﾘｽﾏｽ ｸﾘｽﾏｽ
TTITLE6=Cool
TTITLE7=ちいさなBreakin' my heart
TTITLE8=しずく
TTITLE9=太陽がいっぱい
EXTD=YEAR: 2003
EXTT0=
EXTT1=
EXTT2=
EXTT3=
EXTT4=
EXTT5=
EXTT6=
EXTT7=
EXTT8=
EXTT9=
PLAYORDER=
